<?xml version="1.0" encoding="utf-8"?>
<!-- Generator: Adobe Illustrator 24.1.3, SVG Export Plug-In . SVG Version: 6.00 Build 0)  -->
<svg version="1.1" id="_x31__x2C_5" xmlns="http://www.w3.org/2000/svg" xmlns:xlink="http://www.w3.org/1999/xlink" x="0px"
	 y="0px" viewBox="0 0 512 512" style="enable-background:new 0 0 512 512;" xml:space="preserve">
<style type="text/css">
	.st0{opacity:0;fill:#FFFFFF;}
	.st1{opacity:0;fill:#ECEFF1;}
	.st2{fill:#1FC48F;}
	.st3{font-family:'RobotoMono-Bold';}
	.st4{font-size:238.9987px;}
</style>
<path class="st0" d="M496,78.7V112H16V78.7c0-23.6,19.1-42.7,42.7-42.7h394.7C476.9,36.1,496,55.1,496,78.7z"/>
<path class="st1" d="M496,112v338.6c0,13.2-10.7,24.1-23.9,24.1H39.9c-13.2,0-23.9-10.9-23.9-24.1V112L496,112z"/>
<path class="st2" d="M75.3,378.7c-4.1,0-8.2-1.6-11.3-4.7c-6.3-6.3-6.3-16.4,0-22.6l58-58l-58-58c-6.3-6.3-6.3-16.4,0-22.6
	s16.4-6.3,22.6,0l69.3,69.3c6.3,6.3,6.3,16.4,0,22.6L86.6,374C83.5,377.1,79.4,378.7,75.3,378.7L75.3,378.7z"/>
<path class="st2" d="M432,384h-96c-8.8,0-16-7.2-16-16c0-8.8,7.2-16,16-16h96c8.8,0,16,7.2,16,16C448,376.8,440.8,384,432,384z"/>
<path class="st2" d="M453.3,490.7H58.7C26.3,490.7,0,464.4,0,432V80c0-32.4,26.3-58.7,58.7-58.7h394.7c32.4,0,58.7,26.3,58.7,58.7
	v352C512,464.4,485.7,490.7,453.3,490.7z M58.7,53.3C44,53.3,32,65.3,32,80v352c0,14.7,12,26.7,26.7,26.7h394.7
	c14.7,0,26.7-12,26.7-26.7V80c0-14.7-12-26.7-26.7-26.7H58.7z"/>
<path class="st2" d="M496,128H16c-8.8,0-16-7.2-16-16s7.2-16,16-16h480c8.8,0,16,7.2,16,16S504.8,128,496,128z"/>
<text transform="matrix(1 0 0 1 173.6293 384.0001)" class="st2 st3 st4">H</text>
</svg>
